IKResults																																											
version=1																																											
nRows=8																																											
nColumns=44																																											
inDegrees=yes																																											
																																											
Units are S.I. units (second, meters, Newtons, ...)																																											
Angles are in degrees.																																											
																																											
endheader																																											
time	ground_spine_rot_x	ground_spine_rot_y	ground_spine_rot_z	ground_spine_tx	ground_spine_ty	ground_spine_tz	clav_prot	clav_elev	scapula_abduction	scapula_elevation	scapula_upward_rot	scapula_winging	plane_elv	shoulder_elv	axial_rot	elbow_flexion	pro_sup	clav_prot_l	clav_elev_l	pitch2	roll2	yaw2	aux7jnt_r3	aux7jnt_r1	aux7jnt_r2	aux6jnt_r3	aux6jnt_r1	aux6jnt_r2	aux5jnt_r3	aux5jnt_r1	aux5jnt_r2	aux4jnt_r3	aux4jnt_r1	aux4jnt_r2	aux3jnt_r3	aux3jnt_r1	aux3jnt_r2	pitch1	roll1	yaw1	aux1jnt_r3	aux1jnt_r1	aux1jnt_r2
1.5	0.8149618	-1.60567287	-1.58266398	-0.34471269	1.09491612	-0.20788689	-35.7771391	6.1432848	-4.0819836	-13.69470429	26.6690302	20.52466476	-26.81805942	68.598165	2.59912961	0	34.32	30.42326055	-1.1607173	0.03255027	0.0301549	-0.00090534	0.34875402	0.23670131	-0.00975192	0.41029784	0.27125668	-0.01135995	0.41029784	0.37319336	-0.01135995	0.30772338	0.37319336	-0.01135995	0.20514892	0.33863899	-0.00487596	-0.17298751	-0.01915498	0.01168975	-5.51076584	-0.54874975	0.07434497
1.51	0.82365573	-1.56500851	-1.55311789	-0.3442631	1.09503605	-0.20776991	-35.99893519	6.53439944	-4.47286748	-13.39161628	26.87305274	20.49242353	-25.82249581	69.49352874	2.50041178	0	34.32	30.42326055	-1.1607173	0.03096828	0.03102661	-0.00110136	0.33180407	0.24354382	-0.0118634	0.39035677	0.27909811	-0.01381959	0.39035677	0.38398156	-0.01381959	0.29276758	0.38398156	-0.01381959	0.19517839	0.34842829	-0.0059317	-0.17119111	-0.01894348	0.01149068	-5.45353884	-0.54269081	0.07307896
1.52	0.87871497	-1.50550384	-1.56093325	-0.34401951	1.09511801	-0.20790493	-36.86158213	6.71308151	-3.68523792	-13.71106288	29.06496766	20.33649045	-26.60031069	69.88761459	1.59761797	0	34.32	30.42326055	-1.1607173	0.0325476	0.03041468	-0.0028719	0.34872536	0.23874051	-0.03093496	0.41026413	0.27359357	-0.03603592	0.41026413	0.37640845	-0.03603592	0.3076981	0.37640845	-0.03603592	0.20513206	0.34155639	-0.01546748	-0.17205794	-0.0213596	0.01088202	-5.48115293	-0.61190743	0.06920796
1.53	0.87825588	-1.47548622	-1.53364406	-0.34357293	1.09525557	-0.20768321	-37.12812615	7.01603719	-4.04161636	-13.50187535	29.34556881	20.32003313	-25.63898793	70.78608987	1.4910117	0	34.32	30.42326055	-1.1607173	0.03175389	0.03153563	-0.00317966	0.34022132	0.24753942	-0.03425001	0.4002594	0.283677	-0.0398976	0.4002594	0.39028118	-0.0398976	0.30019455	0.39028118	-0.0398976	0.2001297	0.35414463	-0.01712501	-0.17131133	-0.02174477	0.01074603	-5.45736875	-0.6229419	0.06834307
1.54	0.82277025	-1.49277554	-1.54624409	-0.34332769	1.09534721	-0.20706752	-37.41007491	7.37294628	-4.02659476	-13.3098824	29.94970003	20.22309209	-25.32355157	71.3171811	1.46828808	0	34.32	30.42326055	-1.1607173	0.03229665	0.03431354	-0.00276347	0.34603667	0.26934464	-0.029767	0.40710097	0.30866551	-0.03467536	0.40710097	0.42466022	-0.03467536	0.30532573	0.42466022	-0.03467536	0.20355049	0.38534047	-0.0148835	-0.17099867	-0.02095902	0.01155292	-5.4474086	-0.60043156	0.07347475
1.55	0.86500294	-1.45423387	-1.52821087	-0.34288921	1.09547419	-0.20711227	-37.81757452	7.61605159	-4.27126487	-13.21553364	30.54444346	20.20843269	-24.5288458	72.11533804	1.32445418	0	34.32	30.42326055	-1.1607173	0.03290833	0.03359582	-0.00372344	0.35259036	0.26371089	-0.04010746	0.41481117	0.3022093	-0.0467209	0.41481117	0.41577781	-0.0467209	0.31110838	0.41577781	-0.0467209	0.20740558	0.3772805	-0.02005373	-0.171417	-0.0224747	0.01054698	-5.46073492	-0.64385276	0.06707713
1.56	0.86958174	-1.41206672	-1.52083214	-0.34257947	1.09557238	-0.20694915	-38.28332191	7.86407592	-4.2267642	-13.17554195	31.45491469	20.14470978	-24.25485981	72.58325957	1.08468457	0	34.32	30.42326055	-1.1607173	0.03244682	0.03388246	-0.00461355	0.34764567	0.26596087	-0.04969531	0.4089939	0.30478775	-0.05788972	0.4089939	0.41932522	-0.05788972	0.30674543	0.41932522	-0.05788972	0.20449695	0.38049945	-0.02484766	-0.17050531	-0.02204778	0.01004942	-5.43169166	-0.63162245	0.06391274
1.57	0.85401376	-1.42384625	-1.50339963	-0.34217727	1.0956748	-0.20660569	-38.86996135	8.10163936	-3.05557416	-13.32083114	33.37769964	19.92323253	-25.45335002	72.81124229	0.20109656	0	34.32	30.42326055	-1.1607173	0.03146538	0.03791603	-0.00594165	0.33713013	0.29762246	-0.06400109	0.39662271	0.34107153	-0.07455442	0.39662271	0.46924424	-0.07455442	0.29746703	0.46924424	-0.07455442	0.19831136	0.42579641	-0.03200055	-0.16953079	-0.02640282	0.01093414	-5.40064699	-0.75638495	0.06953942
